Coordinates
version=1
nRows=12
nColumns=23
inDegrees=yes

Units are S.I. units (second, meters, Newtons, ...)
If the header above contains a line with 'inDegrees', this indicates whether rotational values are in degrees (yes) or radians (no).

endheader
time	pelvis_tilt	pelvis_list	pelvis_rotation	pelvis_tx	pelvis_ty	pelvis_tz	hip_flexion_r	hip_adduction_r	hip_rotation_r	knee_angle_r	knee_angle_r_beta	ankle_angle_r	subtalar_angle_r	mtp_angle_r	hip_flexion_l	hip_adduction_l	hip_rotation_l	knee_angle_l	knee_angle_l_beta	ankle_angle_l	subtalar_angle_l	mtp_angle_l
      0.00000000	      4.16129152	     -8.11962604	     -2.99590469	      2.12891737	      1.08856507	      1.04678514	     20.29480390	     10.12840227	    -12.29539978	     33.56176338	      0.58576327	      9.12661472	     -1.90525762	      0.00000000	    -14.41455279	    -12.41849952	    -11.87634540	     58.54329526	      1.02177326	    -10.65952593	    -15.15801032	      0.00000000
      0.00666667	      4.72031806	     -8.75486452	     -3.25109986	      2.12670160	      1.08408242	      1.04703515	     20.13147953	     10.69229478	    -12.03731858	     35.95808441	      0.62758697	     10.80890079	     -2.15587259	      0.00000000	    -13.43351534	    -13.25621696	    -11.56794493	     61.86500652	      1.07974806	    -10.21998817	    -16.28963243	      0.00000000
      0.01333333	      5.21321347	     -9.41416512	     -3.46963455	      2.12450298	      1.07947394	      1.04721302	     19.96376966	     11.33080014	    -11.70243330	     38.19652018	      0.66665504	     12.49612987	     -2.45798522	      0.00000000	    -12.40697442	    -14.09183521	    -11.16126285	     65.07667321	      1.13580221	     -9.79943379	    -17.37934664	      0.00000000
      0.02000000	      5.66493262	    -10.06390897	     -3.61957125	      2.12227597	      1.07489334	      1.04726805	     19.73968624	     11.97709779	    -11.37210010	     40.23465060	      0.70222713	     14.11413220	     -2.79141117	      0.00000000	    -11.31603684	    -14.87441240	    -10.59680797	     68.17863011	      1.18994157	     -9.30635939	    -18.33586200	      0.00000000
      0.02666667	      6.05926587	    -10.78853060	     -3.70451225	      2.12007967	      1.07046475	      1.04727219	     19.42990132	     12.71929915	    -11.10046178	     41.98893649	      0.73284519	     15.63673594	     -3.08139423	      0.00000000	    -10.13902551	    -15.73531932	     -9.93143170	     71.16828330	      1.24212087	     -8.78486096	    -19.12093441	      0.00000000
      0.03333333	      6.74576209	    -11.53533917	     -3.68490723	      2.11792956	      1.06671647	      1.04706406	     18.64337150	     13.46954779	    -10.83875275	     43.46576184	      0.75862066	     17.11644252	     -3.39441764	      0.00000000	     -9.28581668	    -16.51377145	     -9.13441674	     73.90818168	      1.28994111	     -8.26033226	    -19.85748108	      0.00000000
      0.04000000	      6.74376950	    -12.30012887	     -3.55981319	      2.11576572	      1.06245508	      1.04679914	     18.49628947	     14.20311798	    -10.88860740	     44.70955057	      0.78032886	     18.43477887	     -3.44138084	      0.00000000	     -7.45722204	    -17.43644329	     -8.05128933	     76.76195333	      1.33974883	     -7.54425730	    -20.13136925	      0.00000000
      0.04666667	      6.97160553	    -13.02350501	     -3.32183054	      2.11366408	      1.05895963	      1.04630824	     17.95507782	     14.85899385	    -10.98844164	     45.69968680	      0.79761000	     19.73576967	     -3.46512369	      0.00000000	     -5.83768903	    -18.18566937	     -6.78469510	     79.34614175	      1.38485142	     -6.86638708	    -20.36581745	      0.00000000
      0.05333333	      7.22640345	    -13.73212907	     -2.93662749	      2.11162304	      1.05599048	      1.04562415	     17.24442132	     15.45373321	    -11.24489959	     46.41945455	      0.81017232	     20.95285338	     -3.42243896	      0.00000000	     -4.14462993	    -18.85692794	     -5.30089682	     81.74138253	      1.42665626	     -6.23092959	    -20.52083420	      0.00000000
      0.06000000	      7.14966460	    -14.31410200	     -2.50636223	      2.10960183	      1.05310137	      1.04485664	     16.81990539	     15.86845548	    -11.66887864	     47.01200256	      0.82051423	     22.12968768	     -3.08927327	      0.00000000	     -1.94188583	    -19.33778003	     -3.60367670	     84.03257599	      1.46664513	     -5.47667812	    -20.30677155	      0.00000000
      0.06666667	      7.12904754	    -14.82919342	     -1.96930872	      2.10767273	      1.05083114	      1.04395140	     16.20876627	     16.18750495	    -12.18205207	     47.36887581	      0.82674285	     23.21997422	     -2.72223756	      0.00000000	      0.25964200	    -19.64678462	     -1.77201334	     86.07969498	      1.50237410	     -4.81489741	    -20.07148746	      0.00000000
      0.07333333	      7.13170220	    -15.24108067	     -1.35902385	      2.10580534	      1.04918987	      1.04298137	     15.45638805	     16.40007295	    -12.71892234	     47.51076700	      0.82921931	     24.16465171	     -2.34915071	      0.00000000	      2.47484174	    -19.75545045	      0.12951716	     87.87216352	      1.53365857	     -4.24092436	    -19.75881211	      0.00000000
